<svg width="722" height="369" viewBox="0 0 722 369" fill="none" xmlns="http://www.w3.org/2000/svg">
<path d="M442 1C469.983 12.9063 531.5 1 531.5 1L578 9L636 1L679 9C679 9 702.855 1.47676 714.5 9C733.626 21.3571 706 49.5 708.5 67C710.999 84.5 712.5 114 714.5 132.5C716.499 151 710 229.5 708.5 257.5C706.999 285.5 723.499 349 714.5 357.5C705.5 366 660 363.5 625 366C589.999 368.5 562 357.5 520.5 357.5C478.999 357.5 439.238 366.435 387 366C387 366 309.499 357.5 269 357.5C228.5 357.5 208 362.534 166 366C124 369.466 79.2969 365.827 3.99976 357.5C7.88579 317.926 9.58229 295.869 8.99976 257.5C5.48627 223.555 4.42015 204.161 3.99976 169C8.74309 140.529 11.5552 124.514 8.99976 98.5C5.60843 77.62 4.26963 65.6786 3.99976 43.5C9.39684 29.3595 9.52141 21.9936 8.99976 9C74.426 12.8355 111.467 12.5775 178 9C224.893 0.775498 252.407 -0.222952 302.5 1C338.789 7.04854 356.839 8.39886 387 9C404.494 3.90409 417.172 2.46587 442 1Z" fill="#C86D36"/>
<rect x="29" y="34" width="661" height="304" fill="#FEC165"/>
<path d="M118.328 56.9884C126.428 57.4137 126.381 79.0072 118.328 92.9884C110.275 106.97 118.328 109.988 132.828 121.988C147.328 133.988 111.833 138.555 118.328 157.988C111.529 165.394 114.572 169.772 132.828 177.988C118.825 193.007 114.876 201.984 118.328 219.488C132.251 237.123 133.803 246.372 132.828 262.488C119.08 278.259 114.499 287.572 118.328 305.988C118.721 319.592 127.16 326.61 150.828 338.488L179.828 325.988L192.328 305.988C200.533 293.259 200.811 286.844 179.828 278.988C168.775 263.539 173.594 257.322 192.328 248.488C192.809 237.69 191.17 231.449 179.828 219.488C179.828 219.488 204.828 198.988 192.328 188.488C179.828 177.988 184.709 169.899 179.828 157.988C190.095 143.195 192.352 135.378 192.328 121.988L179.828 92.9884C191.635 79.7047 195.043 71.8973 192.328 56.9884C184.055 43.5012 176.258 38.7445 150.828 40.4884C128.93 37.0919 119.599 38.3151 118.328 56.9884Z" fill="#BA2C19" fill-opacity="0.7"/>
<path d="M516.328 56.9884C524.428 57.4137 524.381 79.0072 516.328 92.9884C508.275 106.97 516.328 109.988 530.828 121.988C545.328 133.988 509.833 138.555 516.328 157.988C509.529 165.394 512.572 169.772 530.828 177.988C516.825 193.007 512.876 201.984 516.328 219.488C530.251 237.123 531.803 246.372 530.828 262.488C517.08 278.259 512.499 287.572 516.328 305.988C516.721 319.592 525.16 326.61 548.828 338.488L577.828 325.988L590.328 305.988C598.533 293.259 598.811 286.844 577.828 278.988C566.775 263.539 571.594 257.322 590.328 248.488C590.809 237.69 589.17 231.449 577.828 219.488C577.828 219.488 602.828 198.988 590.328 188.488C577.828 177.988 582.709 169.899 577.828 157.988C588.095 143.195 590.352 135.378 590.328 121.988L577.828 92.9884C589.635 79.7047 593.043 71.8973 590.328 56.9884C582.055 43.5012 574.258 38.7445 548.828 40.4884C526.93 37.0919 517.599 38.3151 516.328 56.9884Z" fill="#BA2C19" fill-opacity="0.7"/>
<path d="M321.328 56.9884C329.428 57.4137 329.381 79.0072 321.328 92.9884C313.275 106.97 321.328 109.988 335.828 121.988C350.328 133.988 314.833 138.555 321.328 157.988C314.529 165.394 317.572 169.772 335.828 177.988C321.825 193.007 317.876 201.984 321.328 219.488C335.251 237.123 336.803 246.372 335.828 262.488C322.08 278.259 317.499 287.572 321.328 305.988C321.721 319.592 330.16 326.61 353.828 338.488L382.828 325.988L395.328 305.988C403.533 293.259 403.811 286.844 382.828 278.988C371.775 263.539 376.594 257.322 395.328 248.488C395.809 237.69 394.17 231.449 382.828 219.488C382.828 219.488 407.828 198.988 395.328 188.488C382.828 177.988 387.709 169.899 382.828 157.988C393.095 143.195 395.352 135.378 395.328 121.988L382.828 92.9884C394.635 79.7047 398.043 71.8973 395.328 56.9884C387.055 43.5012 379.258 38.7445 353.828 40.4884C331.93 37.0919 322.599 38.3151 321.328 56.9884Z" fill="#BA2C19" fill-opacity="0.7"/>
<path d="M646.233 105.466C659.617 105.466 670.466 94.6165 670.466 81.233C670.466 67.8495 659.617 57 646.233 57C632.849 57 622 67.8495 622 81.233C622 94.6165 632.849 105.466 646.233 105.466Z" fill="#E94444"/>
<path d="M646.233 105.466C659.617 105.466 670.466 94.6165 670.466 81.233C670.466 67.8495 659.617 57 646.233 57C632.849 57 622 67.8495 622 81.233C622 94.6165 632.849 105.466 646.233 105.466Z" fill="#E94444"/>
<path d="M447.233 316.466C460.617 316.466 471.466 305.617 471.466 292.233C471.466 278.849 460.617 268 447.233 268C433.849 268 423 278.849 423 292.233C423 305.617 433.849 316.466 447.233 316.466Z" fill="#E94444"/>
<path d="M447.233 247.466C460.617 247.466 471.466 236.617 471.466 223.233C471.466 209.849 460.617 199 447.233 199C433.849 199 423 209.849 423 223.233C423 236.617 433.849 247.466 447.233 247.466Z" fill="#E94444"/>
<path d="M447.233 176.466C460.617 176.466 471.466 165.617 471.466 152.233C471.466 138.849 460.617 128 447.233 128C433.849 128 423 138.849 423 152.233C423 165.617 433.849 176.466 447.233 176.466Z" fill="#E94444"/>
<path d="M447.233 105.466C460.617 105.466 471.466 94.6165 471.466 81.233C471.466 67.8495 460.617 57 447.233 57C433.849 57 423 67.8495 423 81.233C423 94.6165 433.849 105.466 447.233 105.466Z" fill="#E94444"/>
<path d="M69.233 315.466C82.6165 315.466 93.466 304.617 93.466 291.233C93.466 277.849 82.6165 267 69.233 267C55.8495 267 45 277.849 45 291.233C45 304.617 55.8495 315.466 69.233 315.466Z" fill="#E94444"/>
<path d="M69.233 246.466C82.6165 246.466 93.466 235.617 93.466 222.233C93.466 208.849 82.6165 198 69.233 198C55.8495 198 45 208.849 45 222.233C45 235.617 55.8495 246.466 69.233 246.466Z" fill="#E94444"/>
<path d="M69.233 175.466C82.6165 175.466 93.466 164.617 93.466 151.233C93.466 137.849 82.6165 127 69.233 127C55.8495 127 45 137.849 45 151.233C45 164.617 55.8495 175.466 69.233 175.466Z" fill="#E94444"/>
<path d="M69.233 104.466C82.6165 104.466 93.466 93.6165 93.466 80.233C93.466 66.8495 82.6165 56 69.233 56C55.8495 56 45 66.8495 45 80.233C45 93.6165 55.8495 104.466 69.233 104.466Z" fill="#E94444"/>
<path d="M156.233 315.466C169.617 315.466 180.466 304.617 180.466 291.233C180.466 277.849 169.617 267 156.233 267C142.849 267 132 277.849 132 291.233C132 304.617 142.849 315.466 156.233 315.466Z" fill="#E94444"/>
<path d="M156.233 246.466C169.617 246.466 180.466 235.617 180.466 222.233C180.466 208.849 169.617 198 156.233 198C142.849 198 132 208.849 132 222.233C132 235.617 142.849 246.466 156.233 246.466Z" fill="#E94444"/>
<path d="M156.233 175.466C169.617 175.466 180.466 164.617 180.466 151.233C180.466 137.849 169.617 127 156.233 127C142.849 127 132 137.849 132 151.233C132 164.617 142.849 175.466 156.233 175.466Z" fill="#E94444"/>
<path d="M156.233 104.466C169.617 104.466 180.466 93.6165 180.466 80.233C180.466 66.8495 169.617 56 156.233 56C142.849 56 132 66.8495 132 80.233C132 93.6165 142.849 104.466 156.233 104.466Z" fill="#E94444"/>
<path d="M447.233 316.466C460.617 316.466 471.466 305.617 471.466 292.233C471.466 278.849 460.617 268 447.233 268C433.849 268 423 278.849 423 292.233C423 305.617 433.849 316.466 447.233 316.466Z" fill="#E94444"/>
<path d="M447.233 247.466C460.617 247.466 471.466 236.617 471.466 223.233C471.466 209.849 460.617 199 447.233 199C433.849 199 423 209.849 423 223.233C423 236.617 433.849 247.466 447.233 247.466Z" fill="#E94444"/>
<path d="M447.233 176.466C460.617 176.466 471.466 165.617 471.466 152.233C471.466 138.849 460.617 128 447.233 128C433.849 128 423 138.849 423 152.233C423 165.617 433.849 176.466 447.233 176.466Z" fill="#E94444"/>
<path d="M447.233 105.466C460.617 105.466 471.466 94.6165 471.466 81.233C471.466 67.8495 460.617 57 447.233 57C433.849 57 423 67.8495 423 81.233C423 94.6165 433.849 105.466 447.233 105.466Z" fill="#E94444"/>
<path d="M254.233 318.466C267.617 318.466 278.466 307.617 278.466 294.233C278.466 280.849 267.617 270 254.233 270C240.849 270 230 280.849 230 294.233C230 307.617 240.849 318.466 254.233 318.466Z" fill="#E94444"/>
<path d="M254.233 249.466C267.617 249.466 278.466 238.617 278.466 225.233C278.466 211.849 267.617 201 254.233 201C240.849 201 230 211.849 230 225.233C230 238.617 240.849 249.466 254.233 249.466Z" fill="#E94444"/>
<path d="M254.233 178.466C267.617 178.466 278.466 167.617 278.466 154.233C278.466 140.849 267.617 130 254.233 130C240.849 130 230 140.849 230 154.233C230 167.617 240.849 178.466 254.233 178.466Z" fill="#E94444"/>
<path d="M254.233 107.466C267.617 107.466 278.466 96.6165 278.466 83.233C278.466 69.8495 267.617 59 254.233 59C240.849 59 230 69.8495 230 83.233C230 96.6165 240.849 107.466 254.233 107.466Z" fill="#E94444"/>
<path d="M359.233 316.466C372.617 316.466 383.466 305.617 383.466 292.233C383.466 278.849 372.617 268 359.233 268C345.849 268 335 278.849 335 292.233C335 305.617 345.849 316.466 359.233 316.466Z" fill="#E94444"/>
<path d="M359.233 247.466C372.617 247.466 383.466 236.617 383.466 223.233C383.466 209.849 372.617 199 359.233 199C345.849 199 335 209.849 335 223.233C335 236.617 345.849 247.466 359.233 247.466Z" fill="#E94444"/>
<path d="M359.233 176.466C372.617 176.466 383.466 165.617 383.466 152.233C383.466 138.849 372.617 128 359.233 128C345.849 128 335 138.849 335 152.233C335 165.617 345.849 176.466 359.233 176.466Z" fill="#E94444"/>
<path d="M359.233 105.466C372.617 105.466 383.466 94.6165 383.466 81.233C383.466 67.8495 372.617 57 359.233 57C345.849 57 335 67.8495 335 81.233C335 94.6165 345.849 105.466 359.233 105.466Z" fill="#E94444"/>
<path d="M646.233 105.466C659.617 105.466 670.466 94.6165 670.466 81.233C670.466 67.8495 659.617 57 646.233 57C632.849 57 622 67.8495 622 81.233C622 94.6165 632.849 105.466 646.233 105.466Z" fill="#E94444"/>
<path d="M554.233 316.466C567.617 316.466 578.466 305.617 578.466 292.233C578.466 278.849 567.617 268 554.233 268C540.849 268 530 278.849 530 292.233C530 305.617 540.849 316.466 554.233 316.466Z" fill="#E94444"/>
<path d="M549.233 246.466C562.617 246.466 573.466 235.617 573.466 222.233C573.466 208.849 562.617 198 549.233 198C535.849 198 525 208.849 525 222.233C525 235.617 535.849 246.466 549.233 246.466Z" fill="#E94444"/>
<path d="M554.233 176.466C567.617 176.466 578.466 165.617 578.466 152.233C578.466 138.849 567.617 128 554.233 128C540.849 128 530 138.849 530 152.233C530 165.617 540.849 176.466 554.233 176.466Z" fill="#E94444"/>
<path d="M554.233 105.466C567.617 105.466 578.466 94.6165 578.466 81.233C578.466 67.8495 567.617 57 554.233 57C540.849 57 530 67.8495 530 81.233C530 94.6165 540.849 105.466 554.233 105.466Z" fill="#E94444"/>
<path d="M646.233 317.466C659.617 317.466 670.466 306.617 670.466 293.233C670.466 279.849 659.617 269 646.233 269C632.849 269 622 279.849 622 293.233C622 306.617 632.849 317.466 646.233 317.466Z" fill="#E94444"/>
<path d="M646.233 246.466C659.617 246.466 670.466 235.617 670.466 222.233C670.466 208.849 659.617 198 646.233 198C632.849 198 622 208.849 622 222.233C622 235.617 632.849 246.466 646.233 246.466Z" fill="#E94444"/>
<path d="M646.233 176.466C659.617 176.466 670.466 165.617 670.466 152.233C670.466 138.849 659.617 128 646.233 128C632.849 128 622 138.849 622 152.233C622 165.617 632.849 176.466 646.233 176.466Z" fill="#E94444"/>
<path d="M608.392 126.784C615.788 126.784 621.784 120.788 621.784 113.392C621.784 105.996 615.788 100 608.392 100C600.996 100 595 105.996 595 113.392C595 120.788 600.996 126.784 608.392 126.784Z" fill="#9E5528"/>
<path d="M609.392 204.784C616.788 204.784 622.784 198.788 622.784 191.392C622.784 183.996 616.788 178 609.392 178C601.996 178 596 183.996 596 191.392C596 198.788 601.996 204.784 609.392 204.784Z" fill="#9E5528"/>
<path d="M609.392 267.784C616.788 267.784 622.784 261.788 622.784 254.392C622.784 246.996 616.788 241 609.392 241C601.996 241 596 246.996 596 254.392C596 261.788 601.996 267.784 609.392 267.784Z" fill="#9E5528"/>
<path d="M211.392 137.784C218.788 137.784 224.784 131.788 224.784 124.392C224.784 116.996 218.788 111 211.392 111C203.996 111 198 116.996 198 124.392C198 131.788 203.996 137.784 211.392 137.784Z" fill="#9E5528"/>
<path d="M212.392 215.784C219.788 215.784 225.784 209.788 225.784 202.392C225.784 194.996 219.788 189 212.392 189C204.996 189 199 194.996 199 202.392C199 209.788 204.996 215.784 212.392 215.784Z" fill="#9E5528"/>
<path d="M212.392 278.784C219.788 278.784 225.784 272.788 225.784 265.392C225.784 257.996 219.788 252 212.392 252C204.996 252 199 257.996 199 265.392C199 272.788 204.996 278.784 212.392 278.784Z" fill="#9E5528"/>
<path d="M286.392 143.784C293.788 143.784 299.784 137.788 299.784 130.392C299.784 122.996 293.788 117 286.392 117C278.996 117 273 122.996 273 130.392C273 137.788 278.996 143.784 286.392 143.784Z" fill="#9E5528"/>
<path d="M287.392 221.784C294.788 221.784 300.784 215.788 300.784 208.392C300.784 200.996 294.788 195 287.392 195C279.996 195 274 200.996 274 208.392C274 215.788 279.996 221.784 287.392 221.784Z" fill="#9E5528"/>
<path d="M287.392 284.784C294.788 284.784 300.784 278.788 300.784 271.392C300.784 263.996 294.788 258 287.392 258C279.996 258 274 263.996 274 271.392C274 278.788 279.996 284.784 287.392 284.784Z" fill="#9E5528"/>
<path d="M409.392 196.784C416.788 196.784 422.784 190.788 422.784 183.392C422.784 175.996 416.788 170 409.392 170C401.996 170 396 175.996 396 183.392C396 190.788 401.996 196.784 409.392 196.784Z" fill="#9E5528"/>
<path d="M410.392 274.784C417.788 274.784 423.784 268.788 423.784 261.392C423.784 253.996 417.788 248 410.392 248C402.996 248 397 253.996 397 261.392C397 268.788 402.996 274.784 410.392 274.784Z" fill="#9E5528"/>
<path d="M410.392 337.784C417.788 337.784 423.784 331.788 423.784 324.392C423.784 316.996 417.788 311 410.392 311C402.996 311 397 316.996 397 324.392C397 331.788 402.996 337.784 410.392 337.784Z" fill="#9E5528"/>
<path d="M491.392 72.784C498.788 72.784 504.784 66.7882 504.784 59.392C504.784 51.9958 498.788 46 491.392 46C483.996 46 478 51.9958 478 59.392C478 66.7882 483.996 72.784 491.392 72.784Z" fill="#9E5528"/>
<path d="M492.392 150.784C499.788 150.784 505.784 144.788 505.784 137.392C505.784 129.996 499.788 124 492.392 124C484.996 124 479 129.996 479 137.392C479 144.788 484.996 150.784 492.392 150.784Z" fill="#9E5528"/>
<path d="M492.392 213.784C499.788 213.784 505.784 207.788 505.784 200.392C505.784 192.996 499.788 187 492.392 187C484.996 187 479 192.996 479 200.392C479 207.788 484.996 213.784 492.392 213.784Z" fill="#9E5528"/>
</svg>
